<svg xmlns="http://www.w3.org/2000/svg" viewBox="120 75 260 275">
<g transform="translate(0,500) scale(0.1,-0.1)" fill="#000000" stroke="none">
<path d="M3440 3929 c-133 -27 -161 -33 -225 -51 -105 -30 -268 -102 -435
-194 -47 -25 -87 -49 -90 -53 -3 -4 -40 -31 -84 -60 -147 -99 -394 -323 -474
-431 -14 -19 -37 -47 -51 -62 l-25 -28 -192 0 c-106 0 -217 -5 -246 -11 -158
-33 -300 -146 -393 -314 -75 -133 -175 -340 -171 -352 4 -10 72 -13 323 -13
l318 0 338 -337 337 -337 0 -318 c0 -278 2 -318 15 -318 23 0 332 160 406 210
123 84 198 179 239 302 18 54 20 88 20 274 l0 213 36 28 c139 107 366 341 454
469 8 12 35 50 59 84 103 147 217 375 271 542 66 201 73 252 74 523 l1 240
-230 2 c-126 0 -250 -3 -275 -8z m-307 -685 c42 -21 95 -71 114 -109 21 -40
22 -151 1 -190 -40 -74 -122 -125 -203 -125 -51 0 -126 33 -162 72 -28 30 -63
112 -63 148 0 39 36 119 68 154 58 61 175 85 245 50z"/>
<path d="M1504 1838 c-87 -89 -121 -139 -165 -243 -46 -107 -105 -333 -90
-348 9 -9 31 -6 178 29 169 40 287 101 398 205 47 45 85 89 85 98 0 17 -309
331 -326 331 -5 0 -41 -33 -80 -72z"/>
</g>
</svg>
