<svg xmlns="http://www.w3.org/2000/svg" viewBox="0 0 500 500">
<g transform="translate(0,500) scale(0.1,-0.1)" fill="#000000" stroke="none">
<path d="M0 2500 l0 -2500 2500 0 2500 0 0 2500 0 2500 -2500 0 -2500 0 0
-2500z m3945 1210 c-1 -142 -6 -253 -14 -300 -22 -123 -97 -348 -157 -471
-159 -324 -351 -570 -638 -818 l-86 -74 0 -201 c0 -222 -8 -269 -61 -371 -40
-78 -114 -153 -214 -219 -99 -65 -382 -209 -395 -201 -6 4 -10 127 -10 321 l0
315 -337 337 -338 337 -322 3 c-178 1 -323 5 -323 7 0 3 29 63 65 134 36 72
65 132 65 134 0 3 19 37 43 76 88 145 189 243 296 287 64 27 74 28 303 33 130
3 238 8 240 11 65 90 299 329 413 421 101 82 233 172 317 216 40 22 89 48 108
59 19 11 51 26 70 34 19 7 62 26 95 40 73 33 137 54 230 76 144 35 220 42 435
40 l215 -1 0 -225z m-2197 -1959 c89 -87 162 -165 162 -173 0 -30 -206 -208
-240 -208 -7 0 -24 -8 -38 -19 -15 -10 -56 -28 -92 -39 -87 -29 -281 -74 -288
-67 -11 10 21 151 60 264 44 127 53 147 100 218 30 46 157 183 169 183 3 0 79
-71 167 -159z"/>
<path d="M3004 3260 c-67 -10 -127 -59 -163 -135 -61 -131 32 -286 187 -311
48 -8 128 26 179 75 82 80 81 222 -3 306 -57 57 -116 76 -200 65z"/>
</g>
</svg>
