<svg xmlns="http://www.w3.org/2000/svg" xmlns:xlink="http://www.w3.org/1999/xlink" width="450" zoomAndPan="magnify" viewBox="0 0 337.5 112.499997" height="150" preserveAspectRatio="xMidYMid meet" version="1.0"><defs><clipPath id="096d590613"><path d="M 0.496094 0 L 336.503906 0 L 336.503906 112.003906 L 0.496094 112.003906 Z M 0.496094 0 " clip-rule="nonzero"/></clipPath><clipPath id="9417b18a67"><path d="M 16.871094 11.222656 L 109 11.222656 L 109 101 L 16.871094 101 Z M 16.871094 11.222656 " clip-rule="nonzero"/></clipPath><clipPath id="6dd60accbe"><path d="M 108.914062 11.222656 L 108.914062 30.953125 L 60.820312 30.953125 L 73.878906 40.125 L 73.878906 100.878906 L 52.222656 100.878906 L 52.222656 31.472656 L 51.746094 30.953125 L 16.871094 30.953125 L 16.871094 11.222656 Z M 108.914062 11.222656 " clip-rule="nonzero"/></clipPath><clipPath id="7fadc69ada"><path d="M 0.871094 0.222656 L 92.976562 0.222656 L 92.976562 90 L 0.871094 90 Z M 0.871094 0.222656 " clip-rule="nonzero"/></clipPath><clipPath id="9cc22e7c4d"><path d="M 92.914062 0.222656 L 92.914062 19.953125 L 44.820312 19.953125 L 57.878906 29.125 L 57.878906 89.878906 L 36.222656 89.878906 L 36.222656 20.472656 L 35.746094 19.953125 L 0.871094 19.953125 L 0.871094 0.222656 Z M 92.914062 0.222656 " clip-rule="nonzero"/></clipPath><clipPath id="f58f623fa7"><rect x="0" width="93" y="0" height="90"/></clipPath><clipPath id="78a2d185c8"><path d="M 117.222656 10.625 L 209.34375 10.625 L 209.34375 101.429688 L 117.222656 101.429688 Z M 117.222656 10.625 " clip-rule="nonzero"/></clipPath><clipPath id="37b4aeb874"><path d="M 209.234375 38.570312 L 187.257812 38.570312 C 187.683594 34.195312 184.953125 31.304688 181.058594 30.941406 C 169.59375 29.875 156.710938 31.734375 145.097656 30.992188 C 141.636719 31.527344 139.730469 33.960938 139.476562 37.6875 C 138.640625 49.738281 140.128906 62.914062 139.488281 75.089844 C 139.914062 78.640625 142.417969 81.019531 145.6875 81.15625 C 157.019531 80.242188 169.894531 82.339844 181.046875 81.140625 C 183.527344 80.875 185.5625 79.660156 186.589844 77.128906 C 186.71875 76.804688 187.261719 75.238281 187.261719 75.089844 L 187.261719 67.820312 L 186.78125 67.300781 L 162.097656 67.300781 L 162.097656 47.570312 L 209.234375 47.570312 L 209.234375 80.28125 C 209.234375 89.980469 198.21875 100.238281 189.660156 100.894531 C 172.644531 102.191406 154.25 99.878906 137.085938 100.890625 C 126.773438 99.417969 118.277344 90.363281 117.5 78.910156 C 118.199219 64.054688 116.613281 48.277344 117.496094 33.535156 C 118.167969 22.3125 126.460938 12.582031 136.769531 11.210938 C 153.949219 12.328125 172.65625 9.761719 189.660156 11.210938 C 198.15625 11.933594 209.234375 22.144531 209.234375 31.816406 Z M 209.234375 38.570312 " clip-rule="nonzero"/></clipPath><clipPath id="f04ac1970f"><path d="M 0.222656 0.753906 L 92.328125 0.753906 L 92.328125 91.308594 L 0.222656 91.308594 Z M 0.222656 0.753906 " clip-rule="nonzero"/></clipPath><clipPath id="d5ff99c65f"><path d="M 92.234375 28.570312 L 70.257812 28.570312 C 70.683594 24.195312 67.953125 21.304688 64.058594 20.941406 C 52.59375 19.875 39.710938 21.734375 28.097656 20.992188 C 24.636719 21.527344 22.730469 23.960938 22.476562 27.6875 C 21.640625 39.738281 23.128906 52.914062 22.488281 65.089844 C 22.914062 68.640625 25.417969 71.019531 28.6875 71.15625 C 40.019531 70.242188 52.894531 72.339844 64.046875 71.140625 C 66.527344 70.875 68.5625 69.660156 69.589844 67.128906 C 69.71875 66.804688 70.261719 65.238281 70.261719 65.089844 L 70.261719 57.820312 L 69.78125 57.300781 L 45.097656 57.300781 L 45.097656 37.570312 L 92.234375 37.570312 L 92.234375 70.28125 C 92.234375 79.980469 81.21875 90.238281 72.660156 90.894531 C 55.644531 92.191406 37.25 89.878906 20.085938 90.890625 C 9.773438 89.417969 1.277344 80.363281 0.5 68.910156 C 1.199219 54.054688 -0.386719 38.277344 0.496094 23.535156 C 1.167969 12.3125 9.460938 2.582031 19.769531 1.210938 C 36.949219 2.328125 55.65625 -0.238281 72.660156 1.210938 C 81.15625 1.933594 92.234375 12.144531 92.234375 21.816406 Z M 92.234375 28.570312 " clip-rule="nonzero"/></clipPath><clipPath id="f84fa587ad"><rect x="0" width="93" y="0" height="92"/></clipPath><clipPath id="5d50ccce49"><path d="M 226.75 11.222656 L 320.285156 11.222656 L 320.285156 100.941406 L 226.75 100.941406 Z M 226.75 11.222656 " clip-rule="nonzero"/></clipPath><clipPath id="f3d2b4e214"><path d="M 248.40625 57.953125 L 292.832031 57.953125 C 294.882812 57.953125 297.539062 54.945312 297.949219 52.78125 C 298.480469 49.964844 298.355469 40.460938 298.101562 37.34375 C 297.898438 34.832031 296.507812 32.695312 294.390625 31.683594 C 294.09375 31.539062 292.65625 30.953125 292.515625 30.953125 L 248.882812 30.953125 L 248.40625 31.472656 Z M 235.347656 78.03125 L 248.40625 86.855469 L 248.40625 100.878906 L 226.75 100.878906 L 226.75 11.222656 L 301.433594 11.222656 C 302.164062 11.222656 305.386719 12.492188 306.265625 12.890625 C 312.925781 15.886719 319.03125 23.503906 319.742188 31.476562 C 320.3125 37.832031 320.261719 50.691406 319.757812 57.101562 C 319.003906 66.691406 309.296875 78.03125 300.160156 78.03125 Z M 235.347656 78.03125 " clip-rule="nonzero"/></clipPath><clipPath id="85fa1784c2"><path d="M 0.75 0.222656 L 94.195312 0.222656 L 94.195312 89.941406 L 0.75 89.941406 Z M 0.75 0.222656 " clip-rule="nonzero"/></clipPath><clipPath id="f34521a89f"><path d="M 22.40625 46.953125 L 66.832031 46.953125 C 68.882812 46.953125 71.539062 43.945312 71.949219 41.78125 C 72.480469 38.964844 72.355469 29.460938 72.101562 26.34375 C 71.898438 23.832031 70.507812 21.695312 68.390625 20.683594 C 68.09375 20.539062 66.65625 19.953125 66.515625 19.953125 L 22.882812 19.953125 L 22.40625 20.472656 Z M 9.347656 67.03125 L 22.40625 75.855469 L 22.40625 89.878906 L 0.75 89.878906 L 0.75 0.222656 L 75.433594 0.222656 C 76.164062 0.222656 79.386719 1.492188 80.265625 1.890625 C 86.925781 4.886719 93.03125 12.503906 93.742188 20.476562 C 94.3125 26.832031 94.261719 39.691406 93.757812 46.101562 C 93.003906 55.691406 83.296875 67.03125 74.160156 67.03125 Z M 9.347656 67.03125 " clip-rule="nonzero"/></clipPath><clipPath id="4f902bab3f"><rect x="0" width="95" y="0" height="90"/></clipPath></defs><g clip-path="url(#096d590613)"><path fill="transparent" d="M 0.496094 0 L 336.503906 0 L 336.503906 112.003906 L 0.496094 112.003906 Z M 0.496094 0 " fill-opacity="1" fill-rule="nonzero"/></g><g clip-path="url(#9417b18a67)"><g clip-path="url(#6dd60accbe)"><g transform="matrix(1, 0, 0, 1, 16, 11)"><g clip-path="url(#f58f623fa7)"><g clip-path="url(#7fadc69ada)"><g clip-path="url(#9cc22e7c4d)"><path fill="#ffffff" d="M 0.871094 0.222656 L 92.898438 0.222656 L 92.898438 89.875 L 0.871094 89.875 Z M 0.871094 0.222656 " fill-opacity="1" fill-rule="nonzero"/></g></g></g></g></g></g><g clip-path="url(#78a2d185c8)"><g clip-path="url(#37b4aeb874)"><g transform="matrix(1, 0, 0, 1, 117, 10)"><g clip-path="url(#f84fa587ad)"><g clip-path="url(#f04ac1970f)"><g clip-path="url(#d5ff99c65f)"><path fill="#ffffff" d="M 0.222656 0.753906 L 92.214844 0.753906 L 92.214844 91.300781 L 0.222656 91.300781 Z M 0.222656 0.753906 " fill-opacity="1" fill-rule="nonzero"/></g></g></g></g></g></g><g clip-path="url(#5d50ccce49)"><g clip-path="url(#f3d2b4e214)"><g transform="matrix(1, 0, 0, 1, 226, 11)"><g clip-path="url(#4f902bab3f)"><g clip-path="url(#85fa1784c2)"><g clip-path="url(#f34521a89f)"><path fill="#ffffff" d="M 0.75 0.222656 L 94.152344 0.222656 L 94.152344 89.941406 L 0.75 89.941406 Z M 0.75 0.222656 " fill-opacity="1" fill-rule="nonzero"/></g></g></g></g></g></g></svg>